  0
SECTION
  2
HEADER
  9
$ACADVER
  1
AC1009
  9
$FILLMODE
 70
0
  9
$EXTMIN
 10
-45.7473
 20
-72.8707
 30
0.0000
  9
$EXTMAX
 10
89.8707
 20
85.0033
 30
0.0000
  0
ENDSEC
  0
SECTION
  2
TABLES
  0
TABLE
  2
LTYPE
 70
1
  0
LTYPE
  2
CONTINUOUS
 70
64
  3
Solid line
 72
65
 73
0
 40
0
  0
ENDTAB
  0
TABLE
  2
LAYER
 70
255
  0
LAYER
  2
20
 70
64
 62
6
  6
CONTINUOUS
  0
ENDTAB
  0
ENDSEC
  0
SECTION
  2
BLOCKS
  0
BLOCK
  8
0
  2
RECT
 70
64
 10
0.0000
 20
0.0000
 30
0.0000
  3
RECT
  0
SOLID
  8
0
 10
-0.5000
 20
-0.5000
 30
0.0000
 11
0.5000
 21
-0.5000
 31
0.0000
 12
-0.5000
 22
0.5000
 32
0.0000
 13
0.5000
 23
0.5000
 33
0.0000
  0
ENDBLK
  8
0
  0
BLOCK
  8
0
  2
PIE
 70
64
 10
0.0000
 20
0.0000
 30
0.0000
  3
PIE
  0
CIRCLE
  8
0
 10
0.0000
 20
0.0000
 30
0.0000
 40
0.5000
  0
ENDBLK
  8
0
  0
BLOCK
  8
0
  2
OCTAGONP
 70
64
 10
0.0000
 20
0.0000
 30
0.0000
  3
OCTAGONP
  0
POLYLINE
  8
0
 66
1
 10
0.0000
 20
0.0000
 30
0.0000
 40
0.0000
 41
0.0000
 70
1
  0
VERTEX
  8
0
 10
-0.5000
 20
-0.2071
 30
0.0000
  0
VERTEX
  8
0
 10
-0.5000
 20
0.2071
 30
0.0000
  0
VERTEX
  8
0
 10
-0.2071
 20
0.5000
 30
0.0000
  0
VERTEX
  8
0
 10
0.2071
 20
0.5000
 30
0.0000
  0
VERTEX
  8
0
 10
0.5000
 20
0.2071
 30
0.0000
  0
VERTEX
  8
0
 10
0.5000
 20
-0.2071
 30
0.0000
  0
VERTEX
  8
0
 10
0.2071
 20
-0.5000
 30
0.0000
  0
VERTEX
  8
0
 10
-0.2071
 20
-0.5000
 30
0.0000
  0
SEQEND
  8
0
  0
ENDBLK
  8
0
  0
BLOCK
  8
0
  2
SQUAREP
 70
64
 10
0.0000
 20
0.0000
 30
0.0000
  3
SQUAREP
  0
SOLID
  8
0
 10
-0.5000
 20
-0.5000
 30
0.0000
 11
0.5000
 21
-0.5000
 31
0.0000
 12
-0.5000
 22
0.5000
 32
0.0000
 13
0.5000
 23
0.5000
 33
0.0000
  0
ENDBLK
  8
0
  0
BLOCK
  8
0
  2
ROUNDP
 70
64
 10
0.0000
 20
0.0000
 30
0.0000
  3
ROUNDP
  0
CIRCLE
  8
0
 10
0.0000
 20
0.0000
 30
0.0000
 40
0.5000
  0
ENDBLK
  8
0
  0
BLOCK
  8
0
  2
ANNULUSP
 70
64
 10
0.0000
 20
0.0000
 30
0.0000
  3
ANNULUSP
  0
CIRCLE
  8
0
 10
0.0000
 20
0.0000
 30
0.0000
 40
0.5000
  0
ENDBLK
  8
0
  0
BLOCK
  8
0
  2
THERMALP
 70
64
 10
0.0000
 20
0.0000
 30
0.0000
  3
THERMALP
  0
LINE
  8
0
 10
-0.2379
 20
0.4500
 30
0.0000
 11
0.2379
 21
0.4500
 31
0.0000
  0
LINE
  8
0
 10
0.4500
 20
0.2379
 30
0.0000
 11
0.4500
 21
-0.2379
 31
0.0000
  0
LINE
  8
0
 10
0.2379
 20
-0.4500
 30
0.0000
 11
-0.2379
 21
-0.4500
 31
0.0000
  0
LINE
  8
0
 10
-0.4500
 20
-0.2379
 30
0.0000
 11
-0.4500
 21
0.2379
 31
0.0000
  0
ENDBLK
  8
0
  0
BLOCK
  8
0
  2
OCTAGONV
 70
64
 10
0.0000
 20
0.0000
 30
0.0000
  3
OCTAGONV
  0
POLYLINE
  8
0
 66
1
 10
0.0000
 20
0.0000
 30
0.0000
 40
0.0000
 41
0.0000
 70
1
  0
VERTEX
  8
0
 10
-0.5000
 20
-0.2071
 30
0.0000
  0
VERTEX
  8
0
 10
-0.5000
 20
0.2071
 30
0.0000
  0
VERTEX
  8
0
 10
-0.2071
 20
0.5000
 30
0.0000
  0
VERTEX
  8
0
 10
0.2071
 20
0.5000
 30
0.0000
  0
VERTEX
  8
0
 10
0.5000
 20
0.2071
 30
0.0000
  0
VERTEX
  8
0
 10
0.5000
 20
-0.2071
 30
0.0000
  0
VERTEX
  8
0
 10
0.2071
 20
-0.5000
 30
0.0000
  0
VERTEX
  8
0
 10
-0.2071
 20
-0.5000
 30
0.0000
  0
SEQEND
  8
0
  0
ENDBLK
  8
0
  0
BLOCK
  8
0
  2
SQUAREV
 70
64
 10
0.0000
 20
0.0000
 30
0.0000
  3
SQUAREV
  0
SOLID
  8
0
 10
-0.5000
 20
-0.5000
 30
0.0000
 11
0.5000
 21
-0.5000
 31
0.0000
 12
-0.5000
 22
0.5000
 32
0.0000
 13
0.5000
 23
0.5000
 33
0.0000
  0
ENDBLK
  8
0
  0
BLOCK
  8
0
  2
ROUNDV
 70
64
 10
0.0000
 20
0.0000
 30
0.0000
  3
ROUNDV
  0
CIRCLE
  8
0
 10
0.0000
 20
0.0000
 30
0.0000
 40
0.5000
  0
ENDBLK
  8
0
  0
BLOCK
  8
0
  2
ANNULUSV
 70
64
 10
0.0000
 20
0.0000
 30
0.0000
  3
ANNULUSV
  0
CIRCLE
  8
0
 10
0.0000
 20
0.0000
 30
0.0000
 40
0.5000
  0
ENDBLK
  8
0
  0
BLOCK
  8
0
  2
THERMALV
 70
64
 10
0.0000
 20
0.0000
 30
0.0000
  3
THERMALV
  0
LINE
  8
0
 10
-0.2379
 20
0.4500
 30
0.0000
 11
0.2379
 21
0.4500
 31
0.0000
  0
LINE
  8
0
 10
0.4500
 20
0.2379
 30
0.0000
 11
0.4500
 21
-0.2379
 31
0.0000
  0
LINE
  8
0
 10
0.2379
 20
-0.4500
 30
0.0000
 11
-0.2379
 21
-0.4500
 31
0.0000
  0
LINE
  8
0
 10
-0.4500
 20
-0.2379
 30
0.0000
 11
-0.4500
 21
0.2379
 31
0.0000
  0
ENDBLK
  8
0
  0
BLOCK
  8
0
  2
LONGP100
 70
64
 10
0.0000
 20
0.0000
 30
0.0000
  3
LONGP100
  0
POLYLINE
  8
0
 66
1
 10
0.0000
 20
0.0000
 30
0.0000
 40
0.0000
 41
0.0000
 70
1
  0
VERTEX
  8
0
 10
-0.5000
 20
-0.5000
 30
0.0000
  0
VERTEX
  8
0
 10
0.5000
 20
-0.5000
 30
0.0000
 42
1.0000
  0
VERTEX
  8
0
 10
0.5000
 20
0.5000
 30
0.0000
  0
VERTEX
  8
0
 10
-0.5000
 20
0.5000
 30
0.0000
 42
1.0000
  0
SEQEND
  8
0
  0
ENDBLK
  8
0
  0
ENDSEC
  0
SECTION
  2
ENTITIES
  0
LINE
  8
20
 10
0.5000
 20
0.5000
 30
0.0000
 11
0.5000
 21
17.5000
 31
0.0000
  0
LINE
  8
20
 10
0.5000
 20
17.5000
 30
0.0000
 11
1.5000
 21
18.5000
 31
0.0000
  0
LINE
  8
20
 10
1.5000
 20
18.5000
 30
0.0000
 11
1.5000
 21
21.3750
 31
0.0000
  0
LINE
  8
20
 10
1.5000
 20
21.3750
 30
0.0000
 11
0.0000
 21
22.8750
 31
0.0000
  0
LINE
  8
20
 10
0.0000
 20
22.8750
 30
0.0000
 11
0.0000
 21
23.5000
 31
0.0000
  0
LINE
  8
20
 10
0.0000
 20
23.5000
 30
0.0000
 11
0.5000
 21
24.0000
 31
0.0000
  0
LINE
  8
20
 10
0.5000
 20
24.0000
 30
0.0000
 11
0.5000
 21
32.8750
 31
0.0000
  0
LINE
  8
20
 10
0.5000
 20
32.8750
 30
0.0000
 11
0.0000
 21
33.3750
 31
0.0000
  0
LINE
  8
20
 10
0.0000
 20
33.3750
 30
0.0000
 11
0.0000
 21
34.3750
 31
0.0000
  0
LINE
  8
20
 10
0.0000
 20
34.3750
 30
0.0000
 11
1.5000
 21
35.8750
 31
0.0000
  0
LINE
  8
20
 10
1.5000
 20
35.8750
 30
0.0000
 11
1.5000
 21
42.0000
 31
0.0000
  0
LINE
  8
20
 10
1.5000
 20
42.0000
 30
0.0000
 11
0.5000
 21
43.0000
 31
0.0000
  0
LINE
  8
20
 10
0.5000
 20
43.0000
 30
0.0000
 11
0.5000
 21
73.0000
 31
0.0000
  0
ARC
  8
20
 10
1.5000
 20
73.0000
 30
0.0000
 40
1.0000
 50
90.0000
 51
180.0000
  0
LINE
  8
20
 10
1.5000
 20
74.0000
 30
0.0000
 11
11.5000
 21
74.0000
 31
0.0000
  0
ARC
  8
20
 10
1.0000
 20
0.5000
 30
0.0000
 40
0.5000
 50
180.0000
 51
270.0000
  0
LINE
  8
20
 10
13.0000
 20
3.0000
 30
0.0000
 11
10.2929
 21
0.2929
 31
0.0000
  0
ARC
  8
20
 10
9.5858
 20
1.0000
 30
0.0000
 40
1.0000
 50
270.0001
 51
315.0001
  0
LINE
  8
20
 10
9.5858
 20
0.0000
 30
0.0000
 11
1.0000
 21
0.0000
 31
0.0000
  0
LINE
  8
20
 10
16.0000
 20
57.5858
 30
0.0000
 11
16.0000
 21
30.1250
 31
0.0000
  0
LINE
  8
20
 10
16.0000
 20
28.3750
 30
0.0000
 11
16.0000
 21
22.4142
 31
0.0000
  0
ARC
  8
20
 10
15.0000
 20
22.4142
 30
0.0000
 40
1.0000
 50
314.9999
 51
359.9999
  0
LINE
  8
20
 10
15.7071
 20
21.7071
 30
0.0000
 11
13.2929
 21
19.2929
 31
0.0000
  0
ARC
  8
20
 10
14.0000
 20
18.5858
 30
0.0000
 40
1.0000
 50
134.9999
 51
179.9999
  0
LINE
  8
20
 10
13.0000
 20
18.5858
 30
0.0000
 11
13.0000
 21
12.1250
 31
0.0000
  0
LINE
  8
20
 10
13.0000
 20
10.3750
 30
0.0000
 11
13.0000
 21
3.0000
 31
0.0000
  0
ARC
  8
20
 10
11.5000
 20
73.0000
 30
0.0000
 40
1.0000
 50
0.0000
 51
90.0000
  0
LINE
  8
20
 10
12.5000
 20
73.0000
 30
0.0000
 11
12.5000
 21
61.9142
 31
0.0000
  0
ARC
  8
20
 10
13.5000
 20
61.9142
 30
0.0000
 40
1.0000
 50
180.0001
 51
225.0001
  0
LINE
  8
20
 10
12.7929
 20
61.2071
 30
0.0000
 11
15.7071
 21
58.2929
 31
0.0000
  0
ARC
  8
20
 10
15.0000
 20
57.5858
 30
0.0000
 40
1.0000
 50
0.0001
 51
45.0001
  0
LINE
  8
20
 10
18.0000
 20
35.0000
 30
0.0000
 11
18.0000
 21
30.1250
 31
0.0000
  0
LINE
  8
20
 10
18.0000
 20
28.3750
 30
0.0000
 11
18.0000
 21
20.0000
 31
0.0000
  0
LINE
  8
20
 10
18.0000
 20
20.0000
 30
0.0000
 11
19.0000
 21
19.0000
 31
0.0000
  0
LINE
  8
20
 10
19.0000
 20
19.0000
 30
0.0000
 11
19.3750
 21
19.0000
 31
0.0000
  0
LINE
  8
20
 10
21.1250
 20
19.0000
 30
0.0000
 11
22.0000
 21
19.0000
 31
0.0000
  0
LINE
  8
20
 10
22.0000
 20
19.0000
 30
0.0000
 11
23.0000
 21
20.0000
 31
0.0000
  0
LINE
  8
20
 10
23.0000
 20
20.0000
 30
0.0000
 11
23.0000
 21
22.5000
 31
0.0000
  0
LINE
  8
20
 10
23.0000
 20
22.5000
 30
0.0000
 11
24.0000
 21
23.5000
 31
0.0000
  0
LINE
  8
20
 10
24.0000
 20
23.5000
 30
0.0000
 11
29.0000
 21
23.5000
 31
0.0000
  0
LINE
  8
20
 10
29.0000
 20
23.5000
 30
0.0000
 11
30.0000
 21
24.5000
 31
0.0000
  0
LINE
  8
20
 10
30.0000
 20
24.5000
 30
0.0000
 11
30.0000
 21
30.0000
 31
0.0000
  0
LINE
  8
20
 10
30.0000
 20
30.0000
 30
0.0000
 11
29.0000
 21
31.0000
 31
0.0000
  0
LINE
  8
20
 10
29.0000
 20
31.0000
 30
0.0000
 11
24.0000
 21
31.0000
 31
0.0000
  0
LINE
  8
20
 10
24.0000
 20
31.0000
 30
0.0000
 11
23.0000
 21
32.0000
 31
0.0000
  0
LINE
  8
20
 10
23.0000
 20
32.0000
 30
0.0000
 11
23.0000
 21
35.0000
 31
0.0000
  0
LINE
  8
20
 10
23.0000
 20
35.0000
 30
0.0000
 11
22.0000
 21
36.0000
 31
0.0000
  0
LINE
  8
20
 10
22.0000
 20
36.0000
 30
0.0000
 11
19.0000
 21
36.0000
 31
0.0000
  0
LINE
  8
20
 10
19.0000
 20
36.0000
 30
0.0000
 11
18.0000
 21
35.0000
 31
0.0000
  0
LINE
  8
20
 10
18.0000
 20
16.0000
 30
0.0000
 11
18.0000
 21
12.1250
 31
0.0000
  0
LINE
  8
20
 10
18.0000
 20
10.3750
 30
0.0000
 11
18.0000
 21
1.0000
 31
0.0000
  0
LINE
  8
20
 10
18.0000
 20
1.0000
 30
0.0000
 11
19.0000
 21
0.0000
 31
0.0000
  0
LINE
  8
20
 10
19.0000
 20
0.0000
 30
0.0000
 11
22.0000
 21
0.0000
 31
0.0000
  0
LINE
  8
20
 10
22.0000
 20
0.0000
 30
0.0000
 11
23.0000
 21
1.0000
 31
0.0000
  0
LINE
  8
20
 10
23.0000
 20
1.0000
 30
0.0000
 11
23.0000
 21
3.5000
 31
0.0000
  0
LINE
  8
20
 10
23.0000
 20
3.5000
 30
0.0000
 11
24.0000
 21
4.5000
 31
0.0000
  0
LINE
  8
20
 10
24.0000
 20
4.5000
 30
0.0000
 11
29.0000
 21
4.5000
 31
0.0000
  0
LINE
  8
20
 10
29.0000
 20
4.5000
 30
0.0000
 11
30.0000
 21
5.5000
 31
0.0000
  0
LINE
  8
20
 10
30.0000
 20
5.5000
 30
0.0000
 11
30.0000
 21
11.0000
 31
0.0000
  0
LINE
  8
20
 10
30.0000
 20
11.0000
 30
0.0000
 11
29.0000
 21
12.0000
 31
0.0000
  0
LINE
  8
20
 10
29.0000
 20
12.0000
 30
0.0000
 11
24.0000
 21
12.0000
 31
0.0000
  0
LINE
  8
20
 10
24.0000
 20
12.0000
 30
0.0000
 11
23.0000
 21
13.0000
 31
0.0000
  0
LINE
  8
20
 10
23.0000
 20
13.0000
 30
0.0000
 11
23.0000
 21
16.0000
 31
0.0000
  0
LINE
  8
20
 10
23.0000
 20
16.0000
 30
0.0000
 11
22.0000
 21
17.0000
 31
0.0000
  0
LINE
  8
20
 10
22.0000
 20
17.0000
 30
0.0000
 11
21.1250
 21
17.0000
 31
0.0000
  0
LINE
  8
20
 10
19.3750
 20
17.0000
 30
0.0000
 11
19.0000
 21
17.0000
 31
0.0000
  0
LINE
  8
20
 10
19.0000
 20
17.0000
 30
0.0000
 11
18.0000
 21
16.0000
 31
0.0000
  0
LINE
  8
20
 10
19.3750
 20
17.0000
 30
0.0000
 11
19.3750
 21
19.0000
 31
0.0000
  0
LINE
  8
20
 10
21.1250
 20
17.0000
 30
0.0000
 11
21.1250
 21
19.0000
 31
0.0000
  0
LINE
  8
20
 10
18.0000
 20
30.1250
 30
0.0000
 11
16.0000
 21
30.1250
 31
0.0000
  0
LINE
  8
20
 10
18.0000
 20
28.3750
 30
0.0000
 11
16.0000
 21
28.3750
 31
0.0000
  0
LINE
  8
20
 10
18.0000
 20
12.1250
 30
0.0000
 11
13.0000
 21
12.1250
 31
0.0000
  0
LINE
  8
20
 10
18.0000
 20
10.3750
 30
0.0000
 11
13.0000
 21
10.3750
 31
0.0000
  0
CIRCLE
  8
20
 10
4.5000
 20
60.7500
 30
0.0000
 40
2.3000
  0
CIRCLE
  8
20
 10
10.5000
 20
4.2000
 30
0.0000
 40
1.2000
  0
CIRCLE
  8
20
 10
4.5000
 20
10.7000
 30
0.0000
 40
2.3000
  0
CIRCLE
  8
20
 10
10.5000
 20
17.2000
 30
0.0000
 40
1.0000
  0
CIRCLE
  8
20
 10
26.5000
 20
27.3000
 30
0.0000
 40
2.5000
  0
CIRCLE
  8
20
 10
20.5000
 20
20.8000
 30
0.0000
 40
1.0000
  0
CIRCLE
  8
20
 10
20.5000
 20
33.8000
 30
0.0000
 40
1.2000
  0
CIRCLE
  8
20
 10
26.5000
 20
8.3000
 30
0.0000
 40
2.5000
  0
CIRCLE
  8
20
 10
20.5000
 20
1.8000
 30
0.0000
 40
1.0000
  0
CIRCLE
  8
20
 10
20.5000
 20
14.8000
 30
0.0000
 40
1.2000
  0
CIRCLE
  8
20
 10
13.2500
 20
10.8750
 30
0.0000
 40
0.2500
  0
CIRCLE
  8
20
 10
13.2500
 20
11.6250
 30
0.0000
 40
0.2500
  0
CIRCLE
  8
20
 10
17.7500
 20
10.8750
 30
0.0000
 40
0.2500
  0
CIRCLE
  8
20
 10
17.7500
 20
11.6250
 30
0.0000
 40
0.2500
  0
CIRCLE
  8
20
 10
16.2500
 20
28.8750
 30
0.0000
 40
0.2500
  0
CIRCLE
  8
20
 10
16.2500
 20
29.6250
 30
0.0000
 40
0.2500
  0
CIRCLE
  8
20
 10
17.7500
 20
28.8750
 30
0.0000
 40
0.2500
  0
CIRCLE
  8
20
 10
17.7500
 20
29.6250
 30
0.0000
 40
0.2500
  0
CIRCLE
  8
20
 10
20.6250
 20
17.2500
 30
0.0000
 40
0.2500
  0
CIRCLE
  8
20
 10
19.8750
 20
17.2500
 30
0.0000
 40
0.2500
  0
CIRCLE
  8
20
 10
20.6250
 20
18.7500
 30
0.0000
 40
0.2500
  0
CIRCLE
  8
20
 10
19.8750
 20
18.7500
 30
0.0000
 40
0.2500
  0
CIRCLE
  8
20
 10
14.0000
 20
57.2000
 30
0.0000
 40
1.2000
  0
CIRCLE
  8
20
 10
4.6500
 20
32.2500
 30
0.0000
 40
0.5000
  0
CIRCLE
  8
20
 10
4.6500
 20
24.7500
 30
0.0000
 40
0.5000
  0
ENDSEC
  0
EOF
