  0
SECTION
  2
HEADER
  9
$ACADVER
  1
AC1009
  9
$FILLMODE
 70
0
  9
$EXTMIN
 10
-217.5000
 20
-6.8707
 30
0.0000
  9
$EXTMAX
 10
100.1937
 20
367.1467
 30
0.0000
  0
ENDSEC
  0
SECTION
  2
TABLES
  0
TABLE
  2
LTYPE
 70
1
  0
LTYPE
  2
CONTINUOUS
 70
64
  3
Solid line
 72
65
 73
0
 40
0
  0
ENDTAB
  0
TABLE
  2
LAYER
 70
255
  0
LAYER
  2
20
 70
64
 62
6
  6
CONTINUOUS
  0
ENDTAB
  0
ENDSEC
  0
SECTION
  2
BLOCKS
  0
BLOCK
  8
0
  2
RECT
 70
64
 10
0.0000
 20
0.0000
 30
0.0000
  3
RECT
  0
SOLID
  8
0
 10
-0.5000
 20
-0.5000
 30
0.0000
 11
0.5000
 21
-0.5000
 31
0.0000
 12
-0.5000
 22
0.5000
 32
0.0000
 13
0.5000
 23
0.5000
 33
0.0000
  0
ENDBLK
  8
0
  0
BLOCK
  8
0
  2
PIE
 70
64
 10
0.0000
 20
0.0000
 30
0.0000
  3
PIE
  0
CIRCLE
  8
0
 10
0.0000
 20
0.0000
 30
0.0000
 40
0.5000
  0
ENDBLK
  8
0
  0
BLOCK
  8
0
  2
OCTAGONP
 70
64
 10
0.0000
 20
0.0000
 30
0.0000
  3
OCTAGONP
  0
POLYLINE
  8
0
 66
1
 10
0.0000
 20
0.0000
 30
0.0000
 40
0.0000
 41
0.0000
 70
1
  0
VERTEX
  8
0
 10
-0.5000
 20
-0.2071
 30
0.0000
  0
VERTEX
  8
0
 10
-0.5000
 20
0.2071
 30
0.0000
  0
VERTEX
  8
0
 10
-0.2071
 20
0.5000
 30
0.0000
  0
VERTEX
  8
0
 10
0.2071
 20
0.5000
 30
0.0000
  0
VERTEX
  8
0
 10
0.5000
 20
0.2071
 30
0.0000
  0
VERTEX
  8
0
 10
0.5000
 20
-0.2071
 30
0.0000
  0
VERTEX
  8
0
 10
0.2071
 20
-0.5000
 30
0.0000
  0
VERTEX
  8
0
 10
-0.2071
 20
-0.5000
 30
0.0000
  0
SEQEND
  8
0
  0
ENDBLK
  8
0
  0
BLOCK
  8
0
  2
SQUAREP
 70
64
 10
0.0000
 20
0.0000
 30
0.0000
  3
SQUAREP
  0
SOLID
  8
0
 10
-0.5000
 20
-0.5000
 30
0.0000
 11
0.5000
 21
-0.5000
 31
0.0000
 12
-0.5000
 22
0.5000
 32
0.0000
 13
0.5000
 23
0.5000
 33
0.0000
  0
ENDBLK
  8
0
  0
BLOCK
  8
0
  2
ROUNDP
 70
64
 10
0.0000
 20
0.0000
 30
0.0000
  3
ROUNDP
  0
CIRCLE
  8
0
 10
0.0000
 20
0.0000
 30
0.0000
 40
0.5000
  0
ENDBLK
  8
0
  0
BLOCK
  8
0
  2
ANNULUSP
 70
64
 10
0.0000
 20
0.0000
 30
0.0000
  3
ANNULUSP
  0
CIRCLE
  8
0
 10
0.0000
 20
0.0000
 30
0.0000
 40
0.5000
  0
ENDBLK
  8
0
  0
BLOCK
  8
0
  2
THERMALP
 70
64
 10
0.0000
 20
0.0000
 30
0.0000
  3
THERMALP
  0
LINE
  8
0
 10
-0.2379
 20
0.4500
 30
0.0000
 11
0.2379
 21
0.4500
 31
0.0000
  0
LINE
  8
0
 10
0.4500
 20
0.2379
 30
0.0000
 11
0.4500
 21
-0.2379
 31
0.0000
  0
LINE
  8
0
 10
0.2379
 20
-0.4500
 30
0.0000
 11
-0.2379
 21
-0.4500
 31
0.0000
  0
LINE
  8
0
 10
-0.4500
 20
-0.2379
 30
0.0000
 11
-0.4500
 21
0.2379
 31
0.0000
  0
ENDBLK
  8
0
  0
BLOCK
  8
0
  2
OCTAGONV
 70
64
 10
0.0000
 20
0.0000
 30
0.0000
  3
OCTAGONV
  0
POLYLINE
  8
0
 66
1
 10
0.0000
 20
0.0000
 30
0.0000
 40
0.0000
 41
0.0000
 70
1
  0
VERTEX
  8
0
 10
-0.5000
 20
-0.2071
 30
0.0000
  0
VERTEX
  8
0
 10
-0.5000
 20
0.2071
 30
0.0000
  0
VERTEX
  8
0
 10
-0.2071
 20
0.5000
 30
0.0000
  0
VERTEX
  8
0
 10
0.2071
 20
0.5000
 30
0.0000
  0
VERTEX
  8
0
 10
0.5000
 20
0.2071
 30
0.0000
  0
VERTEX
  8
0
 10
0.5000
 20
-0.2071
 30
0.0000
  0
VERTEX
  8
0
 10
0.2071
 20
-0.5000
 30
0.0000
  0
VERTEX
  8
0
 10
-0.2071
 20
-0.5000
 30
0.0000
  0
SEQEND
  8
0
  0
ENDBLK
  8
0
  0
BLOCK
  8
0
  2
SQUAREV
 70
64
 10
0.0000
 20
0.0000
 30
0.0000
  3
SQUAREV
  0
SOLID
  8
0
 10
-0.5000
 20
-0.5000
 30
0.0000
 11
0.5000
 21
-0.5000
 31
0.0000
 12
-0.5000
 22
0.5000
 32
0.0000
 13
0.5000
 23
0.5000
 33
0.0000
  0
ENDBLK
  8
0
  0
BLOCK
  8
0
  2
ROUNDV
 70
64
 10
0.0000
 20
0.0000
 30
0.0000
  3
ROUNDV
  0
CIRCLE
  8
0
 10
0.0000
 20
0.0000
 30
0.0000
 40
0.5000
  0
ENDBLK
  8
0
  0
BLOCK
  8
0
  2
ANNULUSV
 70
64
 10
0.0000
 20
0.0000
 30
0.0000
  3
ANNULUSV
  0
CIRCLE
  8
0
 10
0.0000
 20
0.0000
 30
0.0000
 40
0.5000
  0
ENDBLK
  8
0
  0
BLOCK
  8
0
  2
THERMALV
 70
64
 10
0.0000
 20
0.0000
 30
0.0000
  3
THERMALV
  0
LINE
  8
0
 10
-0.2379
 20
0.4500
 30
0.0000
 11
0.2379
 21
0.4500
 31
0.0000
  0
LINE
  8
0
 10
0.4500
 20
0.2379
 30
0.0000
 11
0.4500
 21
-0.2379
 31
0.0000
  0
LINE
  8
0
 10
0.2379
 20
-0.4500
 30
0.0000
 11
-0.2379
 21
-0.4500
 31
0.0000
  0
LINE
  8
0
 10
-0.4500
 20
-0.2379
 30
0.0000
 11
-0.4500
 21
0.2379
 31
0.0000
  0
ENDBLK
  8
0
  0
ENDSEC
  0
SECTION
  2
ENTITIES
  0
LINE
  8
20
 10
18.0000
 20
33.5000
 30
0.0000
 11
18.5000
 21
33.5000
 31
0.0000
  0
ARC
  8
20
 10
18.5000
 20
18.5000
 30
0.0000
 40
15.0000
 50
0.0000
 51
90.0000
  0
LINE
  8
20
 10
33.5000
 20
18.5000
 30
0.0000
 11
33.5000
 21
16.6266
 31
0.0000
  0
ARC
  8
20
 10
18.6671
 20
16.6266
 30
0.0000
 40
14.8329
 50
333.4349
 51
0.0000
  0
LINE
  8
20
 10
31.9340
 20
9.9931
 30
0.0000
 11
31.2771
 21
8.6793
 31
0.0000
  0
ARC
  8
20
 10
33.6250
 20
7.5053
 30
0.0000
 40
2.6250
 50
153.4350
 51
180.0000
  0
LINE
  8
20
 10
31.0000
 20
7.5053
 30
0.0000
 11
31.0000
 21
1.0000
 31
0.0000
  0
ARC
  8
20
 10
18.0000
 20
34.2500
 30
0.0000
 40
0.7500
 50
180.0000
 51
270.0000
  0
LINE
  8
20
 10
17.2500
 20
34.2500
 30
0.0000
 11
17.2500
 21
34.5000
 31
0.0000
  0
ARC
  8
20
 10
32.0000
 20
1.0000
 30
0.0000
 40
1.0000
 50
180.0000
 51
270.0000
  0
LINE
  8
20
 10
32.0000
 20
0.0000
 30
0.0000
 11
39.6250
 21
0.0000
 31
0.0000
  0
ARC
  8
20
 10
39.6250
 20
0.5000
 30
0.0000
 40
0.5000
 50
270.0000
 51
0.0000
  0
LINE
  8
20
 10
40.1250
 20
0.5000
 30
0.0000
 11
40.1250
 21
14.7500
 31
0.0000
  0
LINE
  8
20
 10
40.1250
 20
14.7500
 30
0.0000
 11
46.6250
 21
14.7500
 31
0.0000
  0
LINE
  8
20
 10
46.6250
 20
14.7500
 30
0.0000
 11
46.6250
 21
0.5000
 31
0.0000
  0
ARC
  8
20
 10
47.1250
 20
0.5000
 30
0.0000
 40
0.5000
 50
180.0000
 51
270.0000
  0
LINE
  8
20
 10
47.1250
 20
0.0000
 30
0.0000
 11
81.5000
 21
0.0000
 31
0.0000
  0
ARC
  8
20
 10
81.5000
 20
1.0000
 30
0.0000
 40
1.0000
 50
270.0000
 51
0.0000
  0
LINE
  8
20
 10
82.5000
 20
1.0000
 30
0.0000
 11
82.5000
 21
46.0858
 31
0.0000
  0
ARC
  8
20
 10
81.5000
 20
46.0858
 30
0.0000
 40
1.0000
 50
0.0001
 51
45.0001
  0
LINE
  8
20
 10
82.2071
 20
46.7929
 30
0.0000
 11
80.2929
 21
48.7071
 31
0.0000
  0
ARC
  8
20
 10
81.0000
 20
49.4142
 30
0.0000
 40
1.0000
 50
180.0001
 51
225.0001
  0
LINE
  8
20
 10
80.0000
 20
49.4142
 30
0.0000
 11
80.0000
 21
56.0858
 31
0.0000
  0
ARC
  8
20
 10
81.0000
 20
56.0858
 30
0.0000
 40
1.0000
 50
134.9999
 51
179.9999
  0
LINE
  8
20
 10
80.2929
 20
56.7929
 30
0.0000
 11
81.2071
 21
57.7071
 31
0.0000
  0
ARC
  8
20
 10
80.5000
 20
58.4142
 30
0.0000
 40
1.0000
 50
314.9999
 51
359.9999
  0
LINE
  8
20
 10
81.5000
 20
58.4142
 30
0.0000
 11
81.5000
 21
60.5858
 31
0.0000
  0
ARC
  8
20
 10
80.5000
 20
60.5858
 30
0.0000
 40
1.0000
 50
0.0001
 51
45.0001
  0
LINE
  8
20
 10
81.2071
 20
61.2929
 30
0.0000
 11
80.2929
 21
62.2071
 31
0.0000
  0
ARC
  8
20
 10
81.0000
 20
62.9142
 30
0.0000
 40
1.0000
 50
180.0001
 51
225.0001
  0
LINE
  8
20
 10
80.0000
 20
62.9142
 30
0.0000
 11
80.0000
 21
68.3358
 31
0.0000
  0
ARC
  8
20
 10
79.3018
 20
68.2108
 30
0.0000
 40
0.7093
 50
10.1500
 51
55.1500
  0
LINE
  8
20
 10
79.7071
 20
68.7929
 30
0.0000
 11
74.0429
 21
74.4571
 31
0.0000
  0
ARC
  8
20
 10
74.7500
 20
75.1642
 30
0.0000
 40
1.0000
 50
180.0001
 51
225.0001
  0
LINE
  8
20
 10
73.7500
 20
75.1642
 30
0.0000
 11
73.7500
 21
79.0858
 31
0.0000
  0
ARC
  8
20
 10
74.7500
 20
79.0858
 30
0.0000
 40
1.0000
 50
134.9999
 51
179.9999
  0
LINE
  8
20
 10
74.0429
 20
79.7929
 30
0.0000
 11
76.4571
 21
82.2071
 31
0.0000
  0
ARC
  8
20
 10
77.1642
 20
81.5000
 30
0.0000
 40
1.0000
 50
90.0001
 51
135.0001
  0
LINE
  8
20
 10
77.1642
 20
82.5000
 30
0.0000
 11
78.0858
 21
82.5000
 31
0.0000
  0
ARC
  8
20
 10
78.0858
 20
83.5000
 30
0.0000
 40
1.0000
 50
270.0001
 51
315.0001
  0
LINE
  8
20
 10
78.7929
 20
82.7929
 30
0.0000
 11
79.7071
 21
83.7071
 31
0.0000
  0
ARC
  8
20
 10
79.0000
 20
84.4142
 30
0.0000
 40
1.0000
 50
314.9999
 51
359.9999
  0
LINE
  8
20
 10
80.0000
 20
84.4142
 30
0.0000
 11
80.0000
 21
90.3358
 31
0.0000
  0
ARC
  8
20
 10
81.0000
 20
90.3358
 30
0.0000
 40
1.0000
 50
134.9999
 51
179.9999
  0
LINE
  8
20
 10
80.2929
 20
91.0429
 30
0.0000
 11
82.2071
 21
92.9571
 31
0.0000
  0
ARC
  8
20
 10
81.5000
 20
93.6642
 30
0.0000
 40
1.0000
 50
314.9999
 51
359.9999
  0
LINE
  8
20
 10
82.5000
 20
93.6642
 30
0.0000
 11
82.5000
 21
103.7929
 31
0.0000
  0
ARC
  8
20
 10
83.0000
 20
103.7929
 30
0.0000
 40
0.5000
 50
134.9999
 51
179.9999
  0
LINE
  8
20
 10
82.6464
 20
104.1464
 30
0.0000
 11
82.8536
 21
104.3536
 31
0.0000
  0
ARC
  8
20
 10
82.5000
 20
104.7071
 30
0.0000
 40
0.5000
 50
314.9999
 51
359.9999
  0
LINE
  8
20
 10
83.0000
 20
104.7071
 30
0.0000
 11
83.0000
 21
112.7929
 31
0.0000
  0
ARC
  8
20
 10
83.5000
 20
112.7929
 30
0.0000
 40
0.5000
 50
134.9999
 51
179.9999
  0
ARC
  8
20
 10
82.8964
 20
113.3964
 30
0.0000
 40
0.3536
 50
315.0001
 51
0.0001
  0
LINE
  8
20
 10
83.2500
 20
113.3964
 30
0.0000
 11
83.2500
 21
122.7500
 31
0.0000
  0
ARC
  8
20
 10
82.5000
 20
122.7500
 30
0.0000
 40
0.7500
 50
0.0000
 51
90.0000
  0
LINE
  8
20
 10
82.5000
 20
123.5000
 30
0.0000
 11
81.0775
 21
123.5000
 31
0.0000
  0
ARC
  8
20
 10
81.0775
 20
122.7094
 30
0.0000
 40
0.7906
 50
89.9999
 51
135.0001
  0
LINE
  8
20
 10
80.5184
 20
123.2684
 30
0.0000
 11
80.5429
 21
123.2929
 31
0.0000
  0
ARC
  8
20
 10
79.8358
 20
124.0000
 30
0.0000
 40
1.0000
 50
270.0001
 51
315.0001
  0
LINE
  8
20
 10
79.8358
 20
123.0000
 30
0.0000
 11
75.4874
 21
123.0000
 31
0.0000
  0
ARC
  8
20
 10
75.4874
 20
123.8750
 30
0.0000
 40
0.8750
 50
225.0000
 51
270.0000
  0
ARC
  8
20
 10
74.2803
 20
122.6679
 30
0.0000
 40
0.8321
 50
45.0001
 51
90.0001
  0
LINE
  8
20
 10
74.2803
 20
123.5000
 30
0.0000
 11
74.0207
 21
123.5000
 31
0.0000
  0
LINE
  8
20
 10
67.0000
 20
132.5000
 30
0.0000
 11
58.5000
 21
132.5000
 31
0.0000
  0
ARC
  8
20
 10
58.5000
 20
133.5000
 30
0.0000
 40
1.0000
 50
180.0000
 51
270.0000
  0
LINE
  8
20
 10
57.5000
 20
133.5000
 30
0.0000
 11
57.5000
 21
136.7500
 31
0.0000
  0
LINE
  8
20
 10
0.5000
 20
141.0000
 30
0.0000
 11
56.5000
 21
141.0000
 31
0.0000
  0
ARC
  8
20
 10
56.5000
 20
140.0000
 30
0.0000
 40
1.0000
 50
0.0000
 51
90.0000
  0
LINE
  8
20
 10
57.5000
 20
140.0000
 30
0.0000
 11
57.5000
 21
138.7500
 31
0.0000
  0
LINE
  8
20
 10
7.9571
 20
80.0429
 30
0.0000
 11
4.7929
 21
83.2071
 31
0.0000
  0
ARC
  8
20
 10
5.5000
 20
83.9142
 30
0.0000
 40
1.0000
 50
180.0001
 51
225.0001
  0
LINE
  8
20
 10
4.5000
 20
83.9142
 30
0.0000
 11
4.5000
 21
87.5858
 31
0.0000
  0
ARC
  8
20
 10
3.5000
 20
87.5858
 30
0.0000
 40
1.0000
 50
0.0001
 51
45.0001
  0
LINE
  8
20
 10
4.2071
 20
88.2929
 30
0.0000
 11
0.2929
 21
92.2071
 31
0.0000
  0
ARC
  8
20
 10
1.0000
 20
92.9142
 30
0.0000
 40
1.0000
 50
180.0001
 51
225.0001
  0
LINE
  8
20
 10
0.0000
 20
92.9142
 30
0.0000
 11
0.0000
 21
121.5000
 31
0.0000
  0
ARC
  8
20
 10
0.5000
 20
121.5000
 30
0.0000
 40
0.5000
 50
90.0000
 51
180.0000
  0
LINE
  8
20
 10
0.5000
 20
122.0000
 30
0.0000
 11
7.7929
 21
122.0000
 31
0.0000
  0
ARC
  8
20
 10
7.7929
 20
122.5000
 30
0.0000
 40
0.5000
 50
270.0001
 51
315.0001
  0
LINE
  8
20
 10
8.1464
 20
122.1464
 30
0.0000
 11
9.3536
 21
123.3536
 31
0.0000
  0
ARC
  8
20
 10
9.0000
 20
123.7071
 30
0.0000
 40
0.5000
 50
314.9999
 51
359.9999
  0
LINE
  8
20
 10
9.5000
 20
123.7071
 30
0.0000
 11
9.5000
 21
129.2929
 31
0.0000
  0
ARC
  8
20
 10
9.0000
 20
129.2929
 30
0.0000
 40
0.5000
 50
0.0001
 51
45.0001
  0
LINE
  8
20
 10
9.3536
 20
129.6464
 30
0.0000
 11
7.6464
 21
131.3536
 31
0.0000
  0
ARC
  8
20
 10
7.2929
 20
131.0000
 30
0.0000
 40
0.5000
 50
44.9999
 51
89.9999
  0
LINE
  8
20
 10
7.2929
 20
131.5000
 30
0.0000
 11
0.5000
 21
131.5000
 31
0.0000
  0
ARC
  8
20
 10
0.5000
 20
132.0000
 30
0.0000
 40
0.5000
 50
180.0000
 51
270.0000
  0
LINE
  8
20
 10
0.0000
 20
132.0000
 30
0.0000
 11
0.0000
 21
140.5000
 31
0.0000
  0
LINE
  8
20
 10
7.9571
 20
73.4571
 30
0.0000
 11
2.7929
 21
68.2929
 31
0.0000
  0
ARC
  8
20
 10
3.5000
 20
67.5858
 30
0.0000
 40
1.0000
 50
134.9999
 51
179.9999
  0
LINE
  8
20
 10
2.5000
 20
67.5858
 30
0.0000
 11
2.5000
 21
62.9142
 31
0.0000
  0
ARC
  8
20
 10
1.5000
 20
62.9142
 30
0.0000
 40
1.0000
 50
314.9999
 51
359.9999
  0
LINE
  8
20
 10
2.2071
 20
62.2071
 30
0.0000
 11
1.2929
 21
61.2929
 31
0.0000
  0
ARC
  8
20
 10
2.0000
 20
60.5858
 30
0.0000
 40
1.0000
 50
134.9999
 51
179.9999
  0
LINE
  8
20
 10
2.5000
 20
49.4142
 30
0.0000
 11
2.5000
 21
56.0858
 31
0.0000
  0
ARC
  8
20
 10
1.5000
 20
56.0858
 30
0.0000
 40
1.0000
 50
0.0001
 51
45.0001
  0
LINE
  8
20
 10
2.2071
 20
56.7929
 30
0.0000
 11
1.2929
 21
57.7071
 31
0.0000
  0
ARC
  8
20
 10
2.0000
 20
58.4142
 30
0.0000
 40
1.0000
 50
180.0001
 51
225.0001
  0
LINE
  8
20
 10
1.0000
 20
58.4142
 30
0.0000
 11
1.0000
 21
60.5858
 31
0.0000
  0
LINE
  8
20
 10
0.2929
 20
46.7929
 30
0.0000
 11
2.2071
 21
48.7071
 31
0.0000
  0
ARC
  8
20
 10
1.5000
 20
49.4142
 30
0.0000
 40
1.0000
 50
314.9999
 51
359.9999
  0
LINE
  8
20
 10
0.0000
 20
36.9142
 30
0.0000
 11
0.0000
 21
46.0858
 31
0.0000
  0
ARC
  8
20
 10
1.0000
 20
46.0858
 30
0.0000
 40
1.0000
 50
134.9999
 51
179.9999
  0
LINE
  8
20
 10
11.7500
 20
34.5000
 30
0.0000
 11
11.7500
 21
34.2500
 31
0.0000
  0
ARC
  8
20
 10
11.0000
 20
34.2500
 30
0.0000
 40
0.7500
 50
270.0000
 51
0.0000
  0
LINE
  8
20
 10
11.0000
 20
33.5000
 30
0.0000
 11
3.4142
 21
33.5000
 31
0.0000
  0
ARC
  8
20
 10
3.4142
 20
34.5000
 30
0.0000
 40
1.0000
 50
224.9999
 51
269.9999
  0
LINE
  8
20
 10
2.7071
 20
33.7929
 30
0.0000
 11
0.2929
 21
36.2071
 31
0.0000
  0
ARC
  8
20
 10
1.0000
 20
36.9142
 30
0.0000
 40
1.0000
 50
180.0001
 51
225.0001
  0
ARC
  8
20
 10
7.2500
 20
74.1642
 30
0.0000
 40
1.0000
 50
314.9999
 51
359.9999
  0
LINE
  8
20
 10
8.2500
 20
74.1642
 30
0.0000
 11
8.2500
 21
79.3358
 31
0.0000
  0
ARC
  8
20
 10
7.2500
 20
79.3358
 30
0.0000
 40
1.0000
 50
0.0001
 51
45.0001
  0
LINE
  8
20
 10
38.5000
 20
55.2500
 30
0.0000
 11
38.5000
 21
57.2500
 31
0.0000
  0
ARC
  8
20
 10
39.5000
 20
57.2500
 30
0.0000
 40
1.0000
 50
90.0000
 51
180.0000
  0
LINE
  8
20
 10
39.5000
 20
58.2500
 30
0.0000
 11
47.0000
 21
58.2500
 31
0.0000
  0
ARC
  8
20
 10
47.0000
 20
57.2500
 30
0.0000
 40
1.0000
 50
0.0000
 51
90.0000
  0
LINE
  8
20
 10
39.5000
 20
54.2500
 30
0.0000
 11
47.0000
 21
54.2500
 31
0.0000
  0
ARC
  8
20
 10
47.0000
 20
55.2500
 30
0.0000
 40
1.0000
 50
270.0000
 51
0.0000
  0
LINE
  8
20
 10
48.0000
 20
55.2500
 30
0.0000
 11
48.0000
 21
57.2500
 31
0.0000
  0
ARC
  8
20
 10
39.5000
 20
55.2500
 30
0.0000
 40
1.0000
 50
180.0000
 51
270.0000
  0
LINE
  8
20
 10
82.0000
 20
140.0000
 30
0.0000
 11
81.0000
 21
141.0000
 31
0.0000
  0
LINE
  8
20
 10
81.0000
 20
141.0000
 30
0.0000
 11
60.0000
 21
141.0000
 31
0.0000
  0
LINE
  8
20
 10
60.0000
 20
141.0000
 30
0.0000
 11
59.0000
 21
140.0000
 31
0.0000
  0
LINE
  8
20
 10
59.0000
 20
140.0000
 30
0.0000
 11
59.0000
 21
138.7500
 31
0.0000
  0
LINE
  8
20
 10
59.0000
 20
136.7500
 30
0.0000
 11
59.0000
 21
135.5000
 31
0.0000
  0
LINE
  8
20
 10
59.0000
 20
135.5000
 30
0.0000
 11
60.0000
 21
134.5000
 31
0.0000
  0
LINE
  8
20
 10
60.0000
 20
134.5000
 30
0.0000
 11
67.0000
 21
134.5000
 31
0.0000
  0
LINE
  8
20
 10
69.0000
 20
134.5000
 30
0.0000
 11
81.0000
 21
134.5000
 31
0.0000
  0
LINE
  8
20
 10
81.0000
 20
134.5000
 30
0.0000
 11
82.0000
 21
135.5000
 31
0.0000
  0
LINE
  8
20
 10
82.0000
 20
135.5000
 30
0.0000
 11
82.0000
 21
140.0000
 31
0.0000
  0
LINE
  8
20
 10
57.5000
 20
138.7500
 30
0.0000
 11
59.0000
 21
138.7500
 31
0.0000
  0
LINE
  8
20
 10
59.0000
 20
136.7500
 30
0.0000
 11
57.5000
 21
136.7500
 31
0.0000
  0
LINE
  8
20
 10
69.0000
 20
134.5000
 30
0.0000
 11
69.0000
 21
132.5000
 31
0.0000
  0
LINE
  8
20
 10
67.0000
 20
132.5000
 30
0.0000
 11
67.0000
 21
134.5000
 31
0.0000
  0
ARC
  8
20
 10
74.0207
 20
125.0207
 30
0.0000
 40
1.5207
 50
180.0000
 51
270.0000
  0
LINE
  8
20
 10
72.5000
 20
125.0207
 30
0.0000
 11
72.5000
 21
127.5858
 31
0.0000
  0
ARC
  8
20
 10
73.5000
 20
127.5858
 30
0.0000
 40
1.0000
 50
134.9999
 51
179.9999
  0
LINE
  8
20
 10
72.7929
 20
128.2929
 30
0.0000
 11
73.7071
 21
129.2071
 31
0.0000
  0
ARC
  8
20
 10
73.0000
 20
129.9142
 30
0.0000
 40
1.0000
 50
314.9999
 51
359.9999
  0
LINE
  8
20
 10
74.0000
 20
129.9142
 30
0.0000
 11
74.0000
 21
131.5000
 31
0.0000
  0
ARC
  8
20
 10
73.0000
 20
131.5000
 30
0.0000
 40
1.0000
 50
0.0000
 51
90.0000
  0
LINE
  8
20
 10
73.0000
 20
132.5000
 30
0.0000
 11
69.0000
 21
132.5000
 31
0.0000
  0
ARC
  8
20
 10
14.6250
 20
34.3750
 30
0.0000
 40
2.6280
 50
2.7263
 51
92.7263
  0
ARC
  8
20
 10
14.3750
 20
34.3750
 30
0.0000
 40
2.6280
 50
87.2737
 51
177.2737
  0
ARC
  8
20
 10
0.5000
 20
140.5000
 30
0.0000
 40
0.5000
 50
90.0000
 51
180.0000
  0
CIRCLE
  8
20
 10
3.0000
 20
37.2000
 30
0.0000
 40
1.0000
  0
CIRCLE
  8
20
 10
52.0000
 20
31.0000
 30
0.0000
 40
1.0000
  0
CIRCLE
  8
20
 10
3.0000
 20
59.7000
 30
0.0000
 40
1.0000
  0
CIRCLE
  8
20
 10
51.3000
 20
53.6000
 30
0.0000
 40
1.0000
  0
CIRCLE
  8
20
 10
79.0000
 20
60.0000
 30
0.0000
 40
1.0000
  0
CIRCLE
  8
20
 10
68.3000
 20
23.0000
 30
0.0000
 40
4.7500
  0
CIRCLE
  8
20
 10
1.8000
 20
45.6000
 30
0.0000
 40
1.1000
  0
CIRCLE
  8
20
 10
57.0000
 20
33.5000
 30
0.0000
 40
1.1000
  0
CIRCLE
  8
20
 10
77.8000
 20
54.8000
 30
0.0000
 40
1.1000
  0
CIRCLE
  8
20
 10
43.8000
 20
26.5000
 30
0.0000
 40
1.1000
  0
CIRCLE
  8
20
 10
41.5000
 20
44.1000
 30
0.0000
 40
1.0000
  0
CIRCLE
  8
20
 10
30.5500
 20
45.7250
 30
0.0000
 40
1.1000
  0
CIRCLE
  8
20
 10
76.0000
 20
137.7500
 30
0.0000
 40
1.0000
  0
CIRCLE
  8
20
 10
71.5000
 20
137.7500
 30
0.0000
 40
1.0000
  0
CIRCLE
  8
20
 10
67.0000
 20
137.7500
 30
0.0000
 40
1.0000
  0
CIRCLE
  8
20
 10
62.5000
 20
137.7500
 30
0.0000
 40
1.0000
  0
CIRCLE
  8
20
 10
68.6250
 20
132.6250
 30
0.0000
 40
0.1500
  0
CIRCLE
  8
20
 10
68.0000
 20
132.6250
 30
0.0000
 40
0.1500
  0
CIRCLE
  8
20
 10
67.3750
 20
132.6250
 30
0.0000
 40
0.1500
  0
CIRCLE
  8
20
 10
57.6250
 20
137.7500
 30
0.0000
 40
0.1500
  0
CIRCLE
  8
20
 10
57.6250
 20
137.1250
 30
0.0000
 40
0.1500
  0
CIRCLE
  8
20
 10
57.6250
 20
138.3750
 30
0.0000
 40
0.1500
  0
CIRCLE
  8
20
 10
72.0000
 20
130.5000
 30
0.0000
 40
1.0500
  0
CIRCLE
  8
20
 10
74.0000
 20
111.7500
 30
0.0000
 40
1.0500
  0
CIRCLE
  8
20
 10
13.5000
 20
134.0000
 30
0.0000
 40
1.0500
  0
CIRCLE
  8
20
 10
16.5000
 20
99.5000
 30
0.0000
 40
1.0500
  0
CIRCLE
  8
20
 10
45.5000
 20
139.0000
 30
0.0000
 40
1.0500
  0
CIRCLE
  8
20
 10
37.7000
 20
35.3000
 30
0.0000
 40
0.7500
  0
CIRCLE
  8
20
 10
80.0000
 20
39.0000
 30
0.0000
 40
0.5500
  0
CIRCLE
  8
20
 10
80.0000
 20
34.0000
 30
0.0000
 40
0.5500
  0
CIRCLE
  8
20
 10
25.5000
 20
135.6300
 30
0.0000
 40
0.7400
  0
CIRCLE
  8
20
 10
25.5000
 20
68.8300
 30
0.0000
 40
0.4750
  0
CIRCLE
  8
20
 10
67.6250
 20
82.2500
 30
0.0000
 40
0.5500
  0
CIRCLE
  8
20
 10
67.6250
 20
76.7500
 30
0.0000
 40
0.5500
  0
CIRCLE
  8
20
 10
57.2500
 20
49.0000
 30
0.0000
 40
0.5500
  0
CIRCLE
  8
20
 10
62.7500
 20
49.0000
 30
0.0000
 40
0.5500
  0
CIRCLE
  8
20
 10
76.7500
 20
114.6500
 30
0.0000
 40
0.3250
  0
CIRCLE
  8
20
 10
76.7500
 20
121.8500
 30
0.0000
 40
0.3250
  0
CIRCLE
  8
20
 10
8.7000
 20
65.1000
 30
0.0000
 40
0.7500
  0
CIRCLE
  8
20
 10
15.0000
 20
63.8000
 30
0.0000
 40
0.7500
  0
CIRCLE
  8
20
 10
23.2000
 20
58.2000
 30
0.0000
 40
0.7500
  0
CIRCLE
  8
20
 10
29.5000
 20
56.9000
 30
0.0000
 40
0.7500
  0
ENDSEC
  0
EOF
