  0
SECTION
  2
HEADER
  9
$ACADVER
  1
AC1009
  9
$FILLMODE
 70
0
  9
$EXTMIN
 10
-69.3707
 20
-120.3707
 30
0.0000
  9
$EXTMAX
 10
26.8707
 20
37.5033
 30
0.0000
  0
ENDSEC
  0
SECTION
  2
TABLES
  0
TABLE
  2
LTYPE
 70
1
  0
LTYPE
  2
CONTINUOUS
 70
64
  3
Solid line
 72
65
 73
0
 40
0
  0
ENDTAB
  0
TABLE
  2
LAYER
 70
255
  0
LAYER
  2
20
 70
64
 62
6
  6
CONTINUOUS
  0
ENDTAB
  0
ENDSEC
  0
SECTION
  2
BLOCKS
  0
BLOCK
  8
0
  2
RECT
 70
64
 10
0.0000
 20
0.0000
 30
0.0000
  3
RECT
  0
SOLID
  8
0
 10
-0.5000
 20
-0.5000
 30
0.0000
 11
0.5000
 21
-0.5000
 31
0.0000
 12
-0.5000
 22
0.5000
 32
0.0000
 13
0.5000
 23
0.5000
 33
0.0000
  0
ENDBLK
  8
0
  0
BLOCK
  8
0
  2
PIE
 70
64
 10
0.0000
 20
0.0000
 30
0.0000
  3
PIE
  0
CIRCLE
  8
0
 10
0.0000
 20
0.0000
 30
0.0000
 40
0.5000
  0
ENDBLK
  8
0
  0
BLOCK
  8
0
  2
OCTAGONP
 70
64
 10
0.0000
 20
0.0000
 30
0.0000
  3
OCTAGONP
  0
POLYLINE
  8
0
 66
1
 10
0.0000
 20
0.0000
 30
0.0000
 40
0.0000
 41
0.0000
 70
1
  0
VERTEX
  8
0
 10
-0.5000
 20
-0.2071
 30
0.0000
  0
VERTEX
  8
0
 10
-0.5000
 20
0.2071
 30
0.0000
  0
VERTEX
  8
0
 10
-0.2071
 20
0.5000
 30
0.0000
  0
VERTEX
  8
0
 10
0.2071
 20
0.5000
 30
0.0000
  0
VERTEX
  8
0
 10
0.5000
 20
0.2071
 30
0.0000
  0
VERTEX
  8
0
 10
0.5000
 20
-0.2071
 30
0.0000
  0
VERTEX
  8
0
 10
0.2071
 20
-0.5000
 30
0.0000
  0
VERTEX
  8
0
 10
-0.2071
 20
-0.5000
 30
0.0000
  0
SEQEND
  8
0
  0
ENDBLK
  8
0
  0
BLOCK
  8
0
  2
SQUAREP
 70
64
 10
0.0000
 20
0.0000
 30
0.0000
  3
SQUAREP
  0
SOLID
  8
0
 10
-0.5000
 20
-0.5000
 30
0.0000
 11
0.5000
 21
-0.5000
 31
0.0000
 12
-0.5000
 22
0.5000
 32
0.0000
 13
0.5000
 23
0.5000
 33
0.0000
  0
ENDBLK
  8
0
  0
BLOCK
  8
0
  2
ROUNDP
 70
64
 10
0.0000
 20
0.0000
 30
0.0000
  3
ROUNDP
  0
CIRCLE
  8
0
 10
0.0000
 20
0.0000
 30
0.0000
 40
0.5000
  0
ENDBLK
  8
0
  0
BLOCK
  8
0
  2
ANNULUSP
 70
64
 10
0.0000
 20
0.0000
 30
0.0000
  3
ANNULUSP
  0
CIRCLE
  8
0
 10
0.0000
 20
0.0000
 30
0.0000
 40
0.5000
  0
ENDBLK
  8
0
  0
BLOCK
  8
0
  2
THERMALP
 70
64
 10
0.0000
 20
0.0000
 30
0.0000
  3
THERMALP
  0
LINE
  8
0
 10
-0.2379
 20
0.4500
 30
0.0000
 11
0.2379
 21
0.4500
 31
0.0000
  0
LINE
  8
0
 10
0.4500
 20
0.2379
 30
0.0000
 11
0.4500
 21
-0.2379
 31
0.0000
  0
LINE
  8
0
 10
0.2379
 20
-0.4500
 30
0.0000
 11
-0.2379
 21
-0.4500
 31
0.0000
  0
LINE
  8
0
 10
-0.4500
 20
-0.2379
 30
0.0000
 11
-0.4500
 21
0.2379
 31
0.0000
  0
ENDBLK
  8
0
  0
BLOCK
  8
0
  2
OCTAGONV
 70
64
 10
0.0000
 20
0.0000
 30
0.0000
  3
OCTAGONV
  0
POLYLINE
  8
0
 66
1
 10
0.0000
 20
0.0000
 30
0.0000
 40
0.0000
 41
0.0000
 70
1
  0
VERTEX
  8
0
 10
-0.5000
 20
-0.2071
 30
0.0000
  0
VERTEX
  8
0
 10
-0.5000
 20
0.2071
 30
0.0000
  0
VERTEX
  8
0
 10
-0.2071
 20
0.5000
 30
0.0000
  0
VERTEX
  8
0
 10
0.2071
 20
0.5000
 30
0.0000
  0
VERTEX
  8
0
 10
0.5000
 20
0.2071
 30
0.0000
  0
VERTEX
  8
0
 10
0.5000
 20
-0.2071
 30
0.0000
  0
VERTEX
  8
0
 10
0.2071
 20
-0.5000
 30
0.0000
  0
VERTEX
  8
0
 10
-0.2071
 20
-0.5000
 30
0.0000
  0
SEQEND
  8
0
  0
ENDBLK
  8
0
  0
BLOCK
  8
0
  2
SQUAREV
 70
64
 10
0.0000
 20
0.0000
 30
0.0000
  3
SQUAREV
  0
SOLID
  8
0
 10
-0.5000
 20
-0.5000
 30
0.0000
 11
0.5000
 21
-0.5000
 31
0.0000
 12
-0.5000
 22
0.5000
 32
0.0000
 13
0.5000
 23
0.5000
 33
0.0000
  0
ENDBLK
  8
0
  0
BLOCK
  8
0
  2
ROUNDV
 70
64
 10
0.0000
 20
0.0000
 30
0.0000
  3
ROUNDV
  0
CIRCLE
  8
0
 10
0.0000
 20
0.0000
 30
0.0000
 40
0.5000
  0
ENDBLK
  8
0
  0
BLOCK
  8
0
  2
ANNULUSV
 70
64
 10
0.0000
 20
0.0000
 30
0.0000
  3
ANNULUSV
  0
CIRCLE
  8
0
 10
0.0000
 20
0.0000
 30
0.0000
 40
0.5000
  0
ENDBLK
  8
0
  0
BLOCK
  8
0
  2
THERMALV
 70
64
 10
0.0000
 20
0.0000
 30
0.0000
  3
THERMALV
  0
LINE
  8
0
 10
-0.2379
 20
0.4500
 30
0.0000
 11
0.2379
 21
0.4500
 31
0.0000
  0
LINE
  8
0
 10
0.4500
 20
0.2379
 30
0.0000
 11
0.4500
 21
-0.2379
 31
0.0000
  0
LINE
  8
0
 10
0.2379
 20
-0.4500
 30
0.0000
 11
-0.2379
 21
-0.4500
 31
0.0000
  0
LINE
  8
0
 10
-0.4500
 20
-0.2379
 30
0.0000
 11
-0.4500
 21
0.2379
 31
0.0000
  0
ENDBLK
  8
0
  0
ENDSEC
  0
SECTION
  2
ENTITIES
  0
LINE
  8
20
 10
21.0000
 20
23.0000
 30
0.0000
 11
21.0000
 21
18.0000
 31
0.0000
  0
ARC
  8
20
 10
20.5000
 20
18.0000
 30
0.0000
 40
0.5000
 50
270.0000
 51
0.0000
  0
LINE
  8
20
 10
20.5000
 20
17.5000
 30
0.0000
 11
15.7500
 21
17.5000
 31
0.0000
  0
ARC
  8
20
 10
15.8125
 20
13.1875
 30
0.0000
 40
4.3130
 50
90.8303
 51
180.8303
  0
ARC
  8
20
 10
15.5625
 20
13.0625
 30
0.0000
 40
4.0630
 50
179.1186
 51
269.1186
  0
LINE
  8
20
 10
15.5000
 20
9.0000
 30
0.0000
 11
18.2929
 21
9.0000
 31
0.0000
  0
ARC
  8
20
 10
18.2929
 20
9.5000
 30
0.0000
 40
0.5000
 50
270.0001
 51
315.0001
  0
LINE
  8
20
 10
18.6464
 20
9.1464
 30
0.0000
 11
18.8536
 21
9.3536
 31
0.0000
  0
ARC
  8
20
 10
19.2071
 20
9.0000
 30
0.0000
 40
0.5000
 50
90.0001
 51
135.0001
  0
LINE
  8
20
 10
19.2071
 20
9.5000
 30
0.0000
 11
20.0000
 21
9.5000
 31
0.0000
  0
ARC
  8
20
 10
20.0000
 20
9.0000
 30
0.0000
 40
0.5000
 50
0.0000
 51
90.0000
  0
LINE
  8
20
 10
20.5000
 20
9.0000
 30
0.0000
 11
20.5000
 21
0.5000
 31
0.0000
  0
ARC
  8
20
 10
20.0000
 20
0.5000
 30
0.0000
 40
0.5000
 50
270.0000
 51
0.0000
  0
LINE
  8
20
 10
20.0000
 20
0.0000
 30
0.0000
 11
15.7071
 21
0.0000
 31
0.0000
  0
ARC
  8
20
 10
15.7071
 20
0.5000
 30
0.0000
 40
0.5000
 50
224.9999
 51
269.9999
  0
LINE
  8
20
 10
15.3536
 20
0.1464
 30
0.0000
 11
10.7929
 21
4.7071
 31
0.0000
  0
ARC
  8
20
 10
10.0858
 20
4.0000
 30
0.0000
 40
1.0000
 50
44.9999
 51
89.9999
  0
LINE
  8
20
 10
10.0858
 20
5.0000
 30
0.0000
 11
5.0000
 21
5.0000
 31
0.0000
  0
ARC
  8
20
 10
5.0000
 20
7.5000
 30
0.0000
 40
2.5000
 50
180.0000
 51
270.0000
  0
LINE
  8
20
 10
2.5000
 20
7.5000
 30
0.0000
 11
2.5000
 21
12.5858
 31
0.0000
  0
ARC
  8
20
 10
1.5000
 20
12.5858
 30
0.0000
 40
1.0000
 50
0.0001
 51
45.0001
  0
LINE
  8
20
 10
2.2071
 20
13.2929
 30
0.0000
 11
0.2929
 21
15.2071
 31
0.0000
  0
ARC
  8
20
 10
1.0000
 20
15.9142
 30
0.0000
 40
1.0000
 50
180.0001
 51
225.0001
  0
LINE
  8
20
 10
0.0000
 20
15.9142
 30
0.0000
 11
0.0000
 21
17.5000
 31
0.0000
  0
ARC
  8
20
 10
-0.5000
 20
17.5000
 30
0.0000
 40
0.5000
 50
0.0000
 51
90.0000
  0
LINE
  8
20
 10
-0.5000
 20
18.0000
 30
0.0000
 11
-2.5000
 21
18.0000
 31
0.0000
  0
LINE
  8
20
 10
-2.5000
 20
22.0000
 30
0.0000
 11
-0.5000
 21
22.0000
 31
0.0000
  0
ARC
  8
20
 10
-0.5000
 20
22.5000
 30
0.0000
 40
0.5000
 50
270.0000
 51
0.0000
  0
LINE
  8
20
 10
0.0000
 20
22.5000
 30
0.0000
 11
0.0000
 21
23.0000
 31
0.0000
  0
ARC
  8
20
 10
0.5000
 20
23.0000
 30
0.0000
 40
0.5000
 50
90.0000
 51
180.0000
  0
LINE
  8
20
 10
0.5000
 20
23.5000
 30
0.0000
 11
20.5000
 21
23.5000
 31
0.0000
  0
ARC
  8
20
 10
20.5000
 20
23.0000
 30
0.0000
 40
0.5000
 50
0.0000
 51
90.0000
  0
ARC
  8
20
 10
-2.5000
 20
20.0000
 30
0.0000
 40
2.0000
 50
180.0000
 51
270.0000
  0
ARC
  8
20
 10
-2.5000
 20
20.0000
 30
0.0000
 40
2.0000
 50
90.0000
 51
180.0000
  0
CIRCLE
  8
20
 10
-2.5000
 20
20.0000
 30
0.0000
 40
1.0500
  0
CIRCLE
  8
20
 10
5.0000
 20
7.5000
 30
0.0000
 40
1.0500
  0
ENDSEC
  0
EOF
