  0
SECTION
  2
HEADER
  9
$ACADVER
  1
AC1009
  9
$FILLMODE
 70
0
  9
$EXTMIN
 10
-0.5762
 20
-0.5762
 30
0.0000
  9
$EXTMAX
 10
58.5762
 20
13.5762
 30
0.0000
  0
ENDSEC
  0
SECTION
  2
TABLES
  0
TABLE
  2
LTYPE
 70
1
  0
LTYPE
  2
CONTINUOUS
 70
64
  3
Solid line
 72
65
 73
0
 40
0
  0
ENDTAB
  0
TABLE
  2
LAYER
 70
255
  0
LAYER
  2
20
 70
64
 62
6
  6
CONTINUOUS
  0
ENDTAB
  0
ENDSEC
  0
SECTION
  2
BLOCKS
  0
BLOCK
  8
0
  2
RECT
 70
64
 10
0.0000
 20
0.0000
 30
0.0000
  3
RECT
  0
SOLID
  8
0
 10
-0.5000
 20
-0.5000
 30
0.0000
 11
0.5000
 21
-0.5000
 31
0.0000
 12
-0.5000
 22
0.5000
 32
0.0000
 13
0.5000
 23
0.5000
 33
0.0000
  0
ENDBLK
  8
0
  0
BLOCK
  8
0
  2
PIE
 70
64
 10
0.0000
 20
0.0000
 30
0.0000
  3
PIE
  0
CIRCLE
  8
0
 10
0.0000
 20
0.0000
 30
0.0000
 40
0.5000
  0
ENDBLK
  8
0
  0
BLOCK
  8
0
  2
OCTAGONP
 70
64
 10
0.0000
 20
0.0000
 30
0.0000
  3
OCTAGONP
  0
POLYLINE
  8
0
 66
1
 10
0.0000
 20
0.0000
 30
0.0000
 40
0.0000
 41
0.0000
 70
1
  0
VERTEX
  8
0
 10
-0.5000
 20
-0.2071
 30
0.0000
  0
VERTEX
  8
0
 10
-0.5000
 20
0.2071
 30
0.0000
  0
VERTEX
  8
0
 10
-0.2071
 20
0.5000
 30
0.0000
  0
VERTEX
  8
0
 10
0.2071
 20
0.5000
 30
0.0000
  0
VERTEX
  8
0
 10
0.5000
 20
0.2071
 30
0.0000
  0
VERTEX
  8
0
 10
0.5000
 20
-0.2071
 30
0.0000
  0
VERTEX
  8
0
 10
0.2071
 20
-0.5000
 30
0.0000
  0
VERTEX
  8
0
 10
-0.2071
 20
-0.5000
 30
0.0000
  0
SEQEND
  8
0
  0
ENDBLK
  8
0
  0
BLOCK
  8
0
  2
SQUAREP
 70
64
 10
0.0000
 20
0.0000
 30
0.0000
  3
SQUAREP
  0
SOLID
  8
0
 10
-0.5000
 20
-0.5000
 30
0.0000
 11
0.5000
 21
-0.5000
 31
0.0000
 12
-0.5000
 22
0.5000
 32
0.0000
 13
0.5000
 23
0.5000
 33
0.0000
  0
ENDBLK
  8
0
  0
BLOCK
  8
0
  2
ROUNDP
 70
64
 10
0.0000
 20
0.0000
 30
0.0000
  3
ROUNDP
  0
CIRCLE
  8
0
 10
0.0000
 20
0.0000
 30
0.0000
 40
0.5000
  0
ENDBLK
  8
0
  0
BLOCK
  8
0
  2
ANNULUSP
 70
64
 10
0.0000
 20
0.0000
 30
0.0000
  3
ANNULUSP
  0
CIRCLE
  8
0
 10
0.0000
 20
0.0000
 30
0.0000
 40
0.5000
  0
ENDBLK
  8
0
  0
BLOCK
  8
0
  2
THERMALP
 70
64
 10
0.0000
 20
0.0000
 30
0.0000
  3
THERMALP
  0
LINE
  8
0
 10
-0.2379
 20
0.4500
 30
0.0000
 11
0.2379
 21
0.4500
 31
0.0000
  0
LINE
  8
0
 10
0.4500
 20
0.2379
 30
0.0000
 11
0.4500
 21
-0.2379
 31
0.0000
  0
LINE
  8
0
 10
0.2379
 20
-0.4500
 30
0.0000
 11
-0.2379
 21
-0.4500
 31
0.0000
  0
LINE
  8
0
 10
-0.4500
 20
-0.2379
 30
0.0000
 11
-0.4500
 21
0.2379
 31
0.0000
  0
ENDBLK
  8
0
  0
BLOCK
  8
0
  2
OCTAGONV
 70
64
 10
0.0000
 20
0.0000
 30
0.0000
  3
OCTAGONV
  0
POLYLINE
  8
0
 66
1
 10
0.0000
 20
0.0000
 30
0.0000
 40
0.0000
 41
0.0000
 70
1
  0
VERTEX
  8
0
 10
-0.5000
 20
-0.2071
 30
0.0000
  0
VERTEX
  8
0
 10
-0.5000
 20
0.2071
 30
0.0000
  0
VERTEX
  8
0
 10
-0.2071
 20
0.5000
 30
0.0000
  0
VERTEX
  8
0
 10
0.2071
 20
0.5000
 30
0.0000
  0
VERTEX
  8
0
 10
0.5000
 20
0.2071
 30
0.0000
  0
VERTEX
  8
0
 10
0.5000
 20
-0.2071
 30
0.0000
  0
VERTEX
  8
0
 10
0.2071
 20
-0.5000
 30
0.0000
  0
VERTEX
  8
0
 10
-0.2071
 20
-0.5000
 30
0.0000
  0
SEQEND
  8
0
  0
ENDBLK
  8
0
  0
BLOCK
  8
0
  2
SQUAREV
 70
64
 10
0.0000
 20
0.0000
 30
0.0000
  3
SQUAREV
  0
SOLID
  8
0
 10
-0.5000
 20
-0.5000
 30
0.0000
 11
0.5000
 21
-0.5000
 31
0.0000
 12
-0.5000
 22
0.5000
 32
0.0000
 13
0.5000
 23
0.5000
 33
0.0000
  0
ENDBLK
  8
0
  0
BLOCK
  8
0
  2
ROUNDV
 70
64
 10
0.0000
 20
0.0000
 30
0.0000
  3
ROUNDV
  0
CIRCLE
  8
0
 10
0.0000
 20
0.0000
 30
0.0000
 40
0.5000
  0
ENDBLK
  8
0
  0
BLOCK
  8
0
  2
ANNULUSV
 70
64
 10
0.0000
 20
0.0000
 30
0.0000
  3
ANNULUSV
  0
CIRCLE
  8
0
 10
0.0000
 20
0.0000
 30
0.0000
 40
0.5000
  0
ENDBLK
  8
0
  0
BLOCK
  8
0
  2
THERMALV
 70
64
 10
0.0000
 20
0.0000
 30
0.0000
  3
THERMALV
  0
LINE
  8
0
 10
-0.2379
 20
0.4500
 30
0.0000
 11
0.2379
 21
0.4500
 31
0.0000
  0
LINE
  8
0
 10
0.4500
 20
0.2379
 30
0.0000
 11
0.4500
 21
-0.2379
 31
0.0000
  0
LINE
  8
0
 10
0.2379
 20
-0.4500
 30
0.0000
 11
-0.2379
 21
-0.4500
 31
0.0000
  0
LINE
  8
0
 10
-0.4500
 20
-0.2379
 30
0.0000
 11
-0.4500
 21
0.2379
 31
0.0000
  0
ENDBLK
  8
0
  0
BLOCK
  8
0
  2
LONGP100
 70
64
 10
0.0000
 20
0.0000
 30
0.0000
  3
LONGP100
  0
POLYLINE
  8
0
 66
1
 10
0.0000
 20
0.0000
 30
0.0000
 40
0.0000
 41
0.0000
 70
1
  0
VERTEX
  8
0
 10
-0.5000
 20
-0.5000
 30
0.0000
  0
VERTEX
  8
0
 10
0.5000
 20
-0.5000
 30
0.0000
 42
1.0000
  0
VERTEX
  8
0
 10
0.5000
 20
0.5000
 30
0.0000
  0
VERTEX
  8
0
 10
-0.5000
 20
0.5000
 30
0.0000
 42
1.0000
  0
SEQEND
  8
0
  0
ENDBLK
  8
0
  0
ENDSEC
  0
SECTION
  2
ENTITIES
  0
LINE
  8
20
 10
1.0000
 20
10.1250
 30
0.0000
 11
0.8964
 21
10.0214
 31
0.0000
  0
ARC
  8
20
 10
1.2500
 20
9.6679
 30
0.0000
 40
0.5000
 50
134.9999
 51
179.9999
  0
LINE
  8
20
 10
0.7500
 20
9.6679
 30
0.0000
 11
0.7500
 21
4.4571
 31
0.0000
  0
ARC
  8
20
 10
0.2500
 20
4.4571
 30
0.0000
 40
0.5000
 50
314.9999
 51
359.9999
  0
LINE
  8
20
 10
0.6036
 20
4.1036
 30
0.0000
 11
0.1464
 21
3.6464
 31
0.0000
  0
ARC
  8
20
 10
0.5000
 20
3.2929
 30
0.0000
 40
0.5000
 50
134.9999
 51
179.9999
  0
LINE
  8
20
 10
0.0000
 20
3.2929
 30
0.0000
 11
0.0000
 21
1.0000
 31
0.0000
  0
ARC
  8
20
 10
1.0000
 20
1.0000
 30
0.0000
 40
1.0000
 50
180.0000
 51
270.0000
  0
LINE
  8
20
 10
1.0000
 20
0.0000
 30
0.0000
 11
8.5000
 21
0.0000
 31
0.0000
  0
LINE
  8
20
 10
8.5000
 20
0.0000
 30
0.0000
 11
8.5000
 21
0.1250
 31
0.0000
  0
ARC
  8
20
 10
9.5000
 20
0.1250
 30
0.0000
 40
1.0000
 50
90.0000
 51
180.0000
  0
ARC
  8
20
 10
9.5000
 20
0.1250
 30
0.0000
 40
1.0000
 50
0.0000
 51
90.0000
  0
LINE
  8
20
 10
10.5000
 20
0.1250
 30
0.0000
 11
10.5000
 21
0.0000
 31
0.0000
  0
LINE
  8
20
 10
10.5000
 20
0.0000
 30
0.0000
 11
20.0000
 21
0.0000
 31
0.0000
  0
ARC
  8
20
 10
20.0000
 20
1.0000
 30
0.0000
 40
1.0000
 50
270.0000
 51
0.0000
  0
LINE
  8
20
 10
21.0000
 20
1.0000
 30
0.0000
 11
21.0000
 21
4.0000
 31
0.0000
  0
ARC
  8
20
 10
22.0000
 20
4.0000
 30
0.0000
 40
1.0000
 50
90.0000
 51
180.0000
  0
LINE
  8
20
 10
22.0000
 20
5.0000
 30
0.0000
 11
36.0000
 21
5.0000
 31
0.0000
  0
ARC
  8
20
 10
36.0000
 20
4.0000
 30
0.0000
 40
1.0000
 50
0.0000
 51
90.0000
  0
LINE
  8
20
 10
37.0000
 20
4.0000
 30
0.0000
 11
37.0000
 21
1.0000
 31
0.0000
  0
ARC
  8
20
 10
38.0000
 20
1.0000
 30
0.0000
 40
1.0000
 50
180.0000
 51
270.0000
  0
LINE
  8
20
 10
38.0000
 20
0.0000
 30
0.0000
 11
47.5000
 21
0.0000
 31
0.0000
  0
LINE
  8
20
 10
49.5000
 20
0.0000
 30
0.0000
 11
57.0000
 21
0.0000
 31
0.0000
  0
ARC
  8
20
 10
57.0000
 20
1.0000
 30
0.0000
 40
1.0000
 50
270.0000
 51
0.0000
  0
LINE
  8
20
 10
58.0000
 20
1.0000
 30
0.0000
 11
58.0000
 21
3.2929
 31
0.0000
  0
ARC
  8
20
 10
57.5000
 20
3.2929
 30
0.0000
 40
0.5000
 50
0.0001
 51
45.0001
  0
LINE
  8
20
 10
57.0000
 20
10.1250
 30
0.0000
 11
57.1036
 21
10.0214
 31
0.0000
  0
ARC
  8
20
 10
56.7500
 20
9.6679
 30
0.0000
 40
0.5000
 50
0.0001
 51
45.0001
  0
LINE
  8
20
 10
57.2500
 20
9.6679
 30
0.0000
 11
57.2500
 21
4.4571
 31
0.0000
  0
ARC
  8
20
 10
57.7500
 20
4.4571
 30
0.0000
 40
0.5000
 50
180.0001
 51
225.0001
  0
LINE
  8
20
 10
57.3964
 20
4.1036
 30
0.0000
 11
57.8536
 21
3.6464
 31
0.0000
  0
LINE
  8
20
 10
51.0000
 20
13.0000
 30
0.0000
 11
44.5000
 21
13.0000
 31
0.0000
  0
LINE
  8
20
 10
42.5000
 20
13.0000
 30
0.0000
 11
15.5000
 21
13.0000
 31
0.0000
  0
LINE
  8
20
 10
13.5000
 20
13.0000
 30
0.0000
 11
7.0000
 21
13.0000
 31
0.0000
  0
LINE
  8
20
 10
2.3750
 20
11.5000
 30
0.0000
 11
3.7286
 21
12.8536
 31
0.0000
  0
ARC
  8
20
 10
4.0821
 20
12.5000
 30
0.0000
 40
0.5000
 50
90.0001
 51
135.0001
  0
LINE
  8
20
 10
4.0821
 20
13.0000
 30
0.0000
 11
5.0000
 21
13.0000
 31
0.0000
  0
LINE
  8
20
 10
7.0000
 20
13.0000
 30
0.0000
 11
7.0000
 21
12.8750
 31
0.0000
  0
ARC
  8
20
 10
6.0000
 20
12.8750
 30
0.0000
 40
1.0000
 50
270.0000
 51
0.0000
  0
ARC
  8
20
 10
6.0000
 20
12.8750
 30
0.0000
 40
1.0000
 50
180.0000
 51
270.0000
  0
LINE
  8
20
 10
5.0000
 20
12.8750
 30
0.0000
 11
5.0000
 21
13.0000
 31
0.0000
  0
LINE
  8
20
 10
47.5000
 20
0.0000
 30
0.0000
 11
47.5000
 21
0.1250
 31
0.0000
  0
ARC
  8
20
 10
48.5000
 20
0.1250
 30
0.0000
 40
1.0000
 50
90.0000
 51
180.0000
  0
ARC
  8
20
 10
48.5000
 20
0.1250
 30
0.0000
 40
1.0000
 50
0.0000
 51
90.0000
  0
LINE
  8
20
 10
49.5000
 20
0.1250
 30
0.0000
 11
49.5000
 21
0.0000
 31
0.0000
  0
LINE
  8
20
 10
15.5000
 20
13.0000
 30
0.0000
 11
15.5000
 21
12.8750
 31
0.0000
  0
ARC
  8
20
 10
14.5000
 20
12.8750
 30
0.0000
 40
1.0000
 50
270.0000
 51
0.0000
  0
ARC
  8
20
 10
14.5000
 20
12.8750
 30
0.0000
 40
1.0000
 50
180.0000
 51
270.0000
  0
LINE
  8
20
 10
13.5000
 20
12.8750
 30
0.0000
 11
13.5000
 21
13.0000
 31
0.0000
  0
LINE
  8
20
 10
44.5000
 20
13.0000
 30
0.0000
 11
44.5000
 21
12.8750
 31
0.0000
  0
ARC
  8
20
 10
43.5000
 20
12.8750
 30
0.0000
 40
1.0000
 50
270.0000
 51
0.0000
  0
ARC
  8
20
 10
43.5000
 20
12.8750
 30
0.0000
 40
1.0000
 50
180.0000
 51
270.0000
  0
LINE
  8
20
 10
42.5000
 20
12.8750
 30
0.0000
 11
42.5000
 21
13.0000
 31
0.0000
  0
LINE
  8
20
 10
53.0000
 20
13.0000
 30
0.0000
 11
53.0000
 21
12.8750
 31
0.0000
  0
ARC
  8
20
 10
52.0000
 20
12.8750
 30
0.0000
 40
1.0000
 50
270.0000
 51
0.0000
  0
ARC
  8
20
 10
52.0000
 20
12.8750
 30
0.0000
 40
1.0000
 50
180.0000
 51
270.0000
  0
LINE
  8
20
 10
51.0000
 20
12.8750
 30
0.0000
 11
51.0000
 21
13.0000
 31
0.0000
  0
ARC
  8
20
 10
1.9936
 20
10.5064
 30
0.0000
 40
1.0643
 50
201.0000
 51
69.0000
  0
LINE
  8
20
 10
55.6250
 20
11.5000
 30
0.0000
 11
54.2714
 21
12.8536
 31
0.0000
  0
ARC
  8
20
 10
53.9179
 20
12.5000
 30
0.0000
 40
0.5000
 50
44.9999
 51
89.9999
  0
LINE
  8
20
 10
53.9179
 20
13.0000
 30
0.0000
 11
53.0000
 21
13.0000
 31
0.0000
  0
ARC
  8
20
 10
56.0064
 20
10.5064
 30
0.0000
 40
1.0643
 50
111.0000
 51
339.0000
  0
CIRCLE
  8
20
 10
19.0000
 20
2.5000
 30
0.0000
 40
1.0500
  0
CIRCLE
  8
20
 10
39.0000
 20
2.5000
 30
0.0000
 40
1.0500
  0
CIRCLE
  8
20
 10
29.0000
 20
7.5000
 30
0.0000
 40
1.0500
  0
CIRCLE
  8
20
 10
9.5000
 20
6.0000
 30
0.0000
 40
0.7500
  0
CIRCLE
  8
20
 10
48.5000
 20
6.0000
 30
0.0000
 40
0.7500
  0
ENDSEC
  0
EOF
